<mxfile host="app.diagrams.net" modified="2022-09-26T03:54:45.130Z" agent="5.0 (Windows NT 10.0; Win64; x64) AppleWebKit/537.36 (KHTML, like Gecko) Chrome/105.0.0.0 Safari/537.36" etag="rnsqO2I7TfrOXe9l1p4-" version="20.3.3" type="github">
  <diagram id="piDafpqhtRUU5qUU-vj8" name="Page-1">
    <mxGraphModel dx="3200" dy="307" grid="1" gridSize="10" guides="1" tooltips="1" connect="1" arrows="1" fold="1" page="1" pageScale="1" pageWidth="1169" pageHeight="827" math="0" shadow="0">
      <root>
        <mxCell id="0" />
        <mxCell id="1" parent="0" />
        <mxCell id="D3bT0H9rs1EJNgNxw0YY-82" style="edgeStyle=orthogonalEdgeStyle;rounded=0;orthogonalLoop=1;jettySize=auto;html=1;fontSize=17;" edge="1" parent="1" source="D3bT0H9rs1EJNgNxw0YY-63" target="D3bT0H9rs1EJNgNxw0YY-17">
          <mxGeometry relative="1" as="geometry">
            <mxPoint x="-810" y="1480" as="targetPoint" />
          </mxGeometry>
        </mxCell>
        <mxCell id="D3bT0H9rs1EJNgNxw0YY-74" style="edgeStyle=orthogonalEdgeStyle;rounded=0;orthogonalLoop=1;jettySize=auto;html=1;fontSize=17;" edge="1" parent="1" source="D3bT0H9rs1EJNgNxw0YY-44">
          <mxGeometry relative="1" as="geometry">
            <mxPoint x="-520" y="1030" as="targetPoint" />
          </mxGeometry>
        </mxCell>
        <mxCell id="D3bT0H9rs1EJNgNxw0YY-83" style="edgeStyle=orthogonalEdgeStyle;rounded=0;orthogonalLoop=1;jettySize=auto;html=1;entryX=-0.003;entryY=0.501;entryDx=0;entryDy=0;entryPerimeter=0;fontSize=17;" edge="1" parent="1" source="D3bT0H9rs1EJNgNxw0YY-17" target="D3bT0H9rs1EJNgNxw0YY-58">
          <mxGeometry relative="1" as="geometry" />
        </mxCell>
        <mxCell id="D3bT0H9rs1EJNgNxw0YY-72" style="edgeStyle=orthogonalEdgeStyle;rounded=0;orthogonalLoop=1;jettySize=auto;html=1;fontSize=17;" edge="1" parent="1" source="D3bT0H9rs1EJNgNxw0YY-21" target="D3bT0H9rs1EJNgNxw0YY-44">
          <mxGeometry relative="1" as="geometry">
            <mxPoint x="-790" y="1030" as="targetPoint" />
          </mxGeometry>
        </mxCell>
        <mxCell id="D3bT0H9rs1EJNgNxw0YY-21" value="Payment system" style="strokeWidth=1;shadow=0;dashed=0;align=center;html=1;shape=mxgraph.mockup.containers.window;align=left;verticalAlign=top;spacingLeft=8;strokeColor2=#008cff;strokeColor3=#c4c4c4;fontColor=#666666;mainText=;fontSize=17;labelBackgroundColor=none;container=0;" vertex="1" parent="1">
          <mxGeometry x="-1160" y="840" width="290" height="380" as="geometry" />
        </mxCell>
        <mxCell id="D3bT0H9rs1EJNgNxw0YY-23" value="Next" style="strokeWidth=1;shadow=0;dashed=0;align=center;html=1;shape=mxgraph.mockup.buttons.button;strokeColor=#666666;fontColor=#ffffff;mainText=;buttonStyle=round;fontSize=17;fontStyle=1;fillColor=#008cff;whiteSpace=wrap;container=0;" vertex="1" parent="1">
          <mxGeometry x="-1085" y="1145" width="150" height="50" as="geometry" />
        </mxCell>
        <mxCell id="D3bT0H9rs1EJNgNxw0YY-1" value="" style="verticalLabelPosition=bottom;shadow=0;dashed=0;align=center;html=1;verticalAlign=top;strokeWidth=1;shape=mxgraph.mockup.graphics.simpleIcon;strokeColor=#999999;fillColor=#ffffff;container=0;" vertex="1" parent="1">
          <mxGeometry x="-1110" y="915" width="50" height="50" as="geometry" />
        </mxCell>
        <mxCell id="D3bT0H9rs1EJNgNxw0YY-2" value="" style="verticalLabelPosition=bottom;shadow=0;dashed=0;align=center;html=1;verticalAlign=top;strokeWidth=1;shape=mxgraph.mockup.graphics.simpleIcon;strokeColor=#999999;fillColor=#ffffff;container=0;" vertex="1" parent="1">
          <mxGeometry x="-1035" y="915" width="50" height="50" as="geometry" />
        </mxCell>
        <mxCell id="D3bT0H9rs1EJNgNxw0YY-3" value="" style="verticalLabelPosition=bottom;shadow=0;dashed=0;align=center;html=1;verticalAlign=top;strokeWidth=1;shape=mxgraph.mockup.graphics.simpleIcon;strokeColor=#999999;fillColor=#ffffff;container=0;" vertex="1" parent="1">
          <mxGeometry x="-960" y="915" width="50" height="50" as="geometry" />
        </mxCell>
        <mxCell id="D3bT0H9rs1EJNgNxw0YY-4" value="" style="verticalLabelPosition=bottom;shadow=0;dashed=0;align=center;html=1;verticalAlign=top;strokeWidth=1;shape=mxgraph.mockup.graphics.simpleIcon;strokeColor=#999999;fillColor=#ffffff;container=0;" vertex="1" parent="1">
          <mxGeometry x="-1110" y="990" width="50" height="50" as="geometry" />
        </mxCell>
        <mxCell id="D3bT0H9rs1EJNgNxw0YY-5" value="" style="verticalLabelPosition=bottom;shadow=0;dashed=0;align=center;html=1;verticalAlign=top;strokeWidth=1;shape=mxgraph.mockup.graphics.simpleIcon;strokeColor=#999999;fillColor=#ffffff;container=0;" vertex="1" parent="1">
          <mxGeometry x="-1035" y="990" width="50" height="50" as="geometry" />
        </mxCell>
        <mxCell id="D3bT0H9rs1EJNgNxw0YY-6" value="" style="verticalLabelPosition=bottom;shadow=0;dashed=0;align=center;html=1;verticalAlign=top;strokeWidth=1;shape=mxgraph.mockup.graphics.simpleIcon;strokeColor=#999999;fillColor=#ffffff;container=0;" vertex="1" parent="1">
          <mxGeometry x="-960" y="990" width="50" height="50" as="geometry" />
        </mxCell>
        <mxCell id="D3bT0H9rs1EJNgNxw0YY-7" value="" style="verticalLabelPosition=bottom;shadow=0;dashed=0;align=center;html=1;verticalAlign=top;strokeWidth=1;shape=mxgraph.mockup.graphics.simpleIcon;strokeColor=#999999;fillColor=#ffffff;container=0;" vertex="1" parent="1">
          <mxGeometry x="-1110" y="1065" width="50" height="50" as="geometry" />
        </mxCell>
        <mxCell id="D3bT0H9rs1EJNgNxw0YY-8" value="" style="verticalLabelPosition=bottom;shadow=0;dashed=0;align=center;html=1;verticalAlign=top;strokeWidth=1;shape=mxgraph.mockup.graphics.simpleIcon;strokeColor=#999999;fillColor=#ffffff;container=0;" vertex="1" parent="1">
          <mxGeometry x="-1035" y="1065" width="50" height="50" as="geometry" />
        </mxCell>
        <mxCell id="D3bT0H9rs1EJNgNxw0YY-9" value="" style="verticalLabelPosition=bottom;shadow=0;dashed=0;align=center;html=1;verticalAlign=top;strokeWidth=1;shape=mxgraph.mockup.graphics.simpleIcon;strokeColor=#999999;fillColor=#ffffff;container=0;" vertex="1" parent="1">
          <mxGeometry x="-960" y="1065" width="50" height="50" as="geometry" />
        </mxCell>
        <mxCell id="D3bT0H9rs1EJNgNxw0YY-85" value="" style="group" vertex="1" connectable="0" parent="1">
          <mxGeometry x="-840" y="840" width="290" height="380" as="geometry" />
        </mxCell>
        <mxCell id="D3bT0H9rs1EJNgNxw0YY-44" value="Payment system" style="strokeWidth=1;shadow=0;dashed=0;align=center;html=1;shape=mxgraph.mockup.containers.window;align=left;verticalAlign=top;spacingLeft=8;strokeColor2=#008cff;strokeColor3=#c4c4c4;fontColor=#666666;mainText=;fontSize=17;labelBackgroundColor=none;container=0;" vertex="1" parent="D3bT0H9rs1EJNgNxw0YY-85">
          <mxGeometry width="290" height="380" as="geometry" />
        </mxCell>
        <mxCell id="D3bT0H9rs1EJNgNxw0YY-12" value="" style="verticalLabelPosition=bottom;shadow=0;dashed=0;align=center;html=1;verticalAlign=top;strokeWidth=1;shape=mxgraph.mockup.misc.loading_circle_1;pointerEvents=1;container=0;" vertex="1" parent="D3bT0H9rs1EJNgNxw0YY-85">
          <mxGeometry x="100" y="145" width="90" height="90" as="geometry" />
        </mxCell>
        <mxCell id="D3bT0H9rs1EJNgNxw0YY-86" value="" style="group" vertex="1" connectable="0" parent="1">
          <mxGeometry x="-520" y="887.5" width="500" height="285" as="geometry" />
        </mxCell>
        <mxCell id="D3bT0H9rs1EJNgNxw0YY-25" value="Payment confirmation" style="strokeWidth=1;shadow=0;dashed=0;align=center;html=1;shape=mxgraph.mockup.containers.window;align=left;verticalAlign=top;spacingLeft=8;strokeColor2=#008cff;strokeColor3=#c4c4c4;fontColor=#666666;mainText=;fontSize=17;labelBackgroundColor=none;container=0;" vertex="1" parent="D3bT0H9rs1EJNgNxw0YY-86">
          <mxGeometry width="500" height="285" as="geometry" />
        </mxCell>
        <mxCell id="D3bT0H9rs1EJNgNxw0YY-41" value="Go back" style="strokeWidth=1;shadow=0;dashed=0;align=center;html=1;shape=mxgraph.mockup.buttons.button;strokeColor=#666666;fontColor=#ffffff;mainText=;buttonStyle=round;fontSize=17;fontStyle=1;fillColor=#008cff;whiteSpace=wrap;container=0;" vertex="1" parent="D3bT0H9rs1EJNgNxw0YY-86">
          <mxGeometry x="50" y="215" width="150" height="50" as="geometry" />
        </mxCell>
        <mxCell id="D3bT0H9rs1EJNgNxw0YY-42" value="Confirm" style="strokeWidth=1;shadow=0;dashed=0;align=center;html=1;shape=mxgraph.mockup.buttons.button;strokeColor=#666666;fontColor=#ffffff;mainText=;buttonStyle=round;fontSize=17;fontStyle=1;fillColor=#008cff;whiteSpace=wrap;container=0;" vertex="1" parent="D3bT0H9rs1EJNgNxw0YY-86">
          <mxGeometry x="300" y="215" width="150" height="50" as="geometry" />
        </mxCell>
        <mxCell id="D3bT0H9rs1EJNgNxw0YY-39" value="&lt;font style=&quot;font-size: 17px;&quot;&gt;Payment system name&lt;/font&gt;" style="text;html=1;strokeColor=none;fillColor=none;align=center;verticalAlign=middle;whiteSpace=wrap;rounded=0;container=0;" vertex="1" parent="D3bT0H9rs1EJNgNxw0YY-86">
          <mxGeometry x="213.75" y="115" width="182.5" height="30" as="geometry" />
        </mxCell>
        <mxCell id="D3bT0H9rs1EJNgNxw0YY-40" value="" style="verticalLabelPosition=bottom;shadow=0;dashed=0;align=center;html=1;verticalAlign=top;strokeWidth=1;shape=mxgraph.mockup.graphics.simpleIcon;strokeColor=#999999;fontSize=17;container=0;" vertex="1" parent="D3bT0H9rs1EJNgNxw0YY-86">
          <mxGeometry x="103.75" y="105" width="50" height="50" as="geometry" />
        </mxCell>
        <mxCell id="D3bT0H9rs1EJNgNxw0YY-75" style="edgeStyle=orthogonalEdgeStyle;rounded=0;orthogonalLoop=1;jettySize=auto;html=1;entryX=0.478;entryY=0.998;entryDx=0;entryDy=0;entryPerimeter=0;fontSize=17;" edge="1" parent="1" source="D3bT0H9rs1EJNgNxw0YY-41" target="D3bT0H9rs1EJNgNxw0YY-21">
          <mxGeometry relative="1" as="geometry">
            <Array as="points">
              <mxPoint x="-400" y="1250" />
              <mxPoint x="-1021" y="1250" />
            </Array>
          </mxGeometry>
        </mxCell>
        <mxCell id="D3bT0H9rs1EJNgNxw0YY-76" style="edgeStyle=orthogonalEdgeStyle;rounded=0;orthogonalLoop=1;jettySize=auto;html=1;fontSize=17;" edge="1" parent="1" source="D3bT0H9rs1EJNgNxw0YY-42">
          <mxGeometry relative="1" as="geometry">
            <mxPoint x="-1040" y="1400" as="targetPoint" />
            <Array as="points">
              <mxPoint x="-140" y="1290" />
              <mxPoint x="-1040" y="1290" />
            </Array>
          </mxGeometry>
        </mxCell>
        <mxCell id="D3bT0H9rs1EJNgNxw0YY-87" value="" style="group" vertex="1" connectable="0" parent="1">
          <mxGeometry x="-1160" y="1397.5" width="250" height="165" as="geometry" />
        </mxCell>
        <mxCell id="D3bT0H9rs1EJNgNxw0YY-63" value="" style="strokeWidth=1;shadow=0;dashed=0;align=center;html=1;shape=mxgraph.mockup.containers.rrect;rSize=0;strokeColor=#666666;fontColor=#666666;fontSize=17;verticalAlign=top;whiteSpace=wrap;fillColor=#ffffff;spacingTop=32;container=0;" vertex="1" parent="D3bT0H9rs1EJNgNxw0YY-87">
          <mxGeometry width="250" height="165" as="geometry" />
        </mxCell>
        <mxCell id="D3bT0H9rs1EJNgNxw0YY-64" value="Loading" style="strokeWidth=1;shadow=0;dashed=0;align=center;html=1;shape=mxgraph.mockup.containers.rrect;rSize=0;fontSize=17;fontColor=#666666;strokeColor=#666666;align=left;spacingLeft=8;fillColor=#ffffff;resizeWidth=1;container=0;" vertex="1" parent="D3bT0H9rs1EJNgNxw0YY-87">
          <mxGeometry width="250" height="35" as="geometry" />
        </mxCell>
        <mxCell id="D3bT0H9rs1EJNgNxw0YY-67" value="" style="shape=ellipse;strokeColor=#008cff;resizable=0;fillColor=none;html=1;container=0;" vertex="1" parent="D3bT0H9rs1EJNgNxw0YY-87">
          <mxGeometry x="225" y="10" width="20" height="20" as="geometry">
            <mxPoint x="-25" y="-10" as="offset" />
          </mxGeometry>
        </mxCell>
        <mxCell id="D3bT0H9rs1EJNgNxw0YY-68" value="" style="verticalLabelPosition=bottom;shadow=0;dashed=0;align=center;html=1;verticalAlign=top;strokeWidth=1;shape=mxgraph.mockup.misc.progressBar;fillColor=#cccccc;strokeColor=none;fillColor2=#99ddff;barPos=80;container=0;" vertex="1" parent="D3bT0H9rs1EJNgNxw0YY-87">
          <mxGeometry x="25" y="75" width="200" height="20" as="geometry" />
        </mxCell>
        <mxCell id="D3bT0H9rs1EJNgNxw0YY-88" value="" style="group" vertex="1" connectable="0" parent="1">
          <mxGeometry x="-840" y="1397.5" width="250" height="165" as="geometry" />
        </mxCell>
        <mxCell id="D3bT0H9rs1EJNgNxw0YY-17" value="Payment&lt;br&gt;delivered&lt;br&gt;successfully" style="strokeWidth=1;shadow=0;dashed=0;align=center;html=1;shape=mxgraph.mockup.containers.rrect;rSize=0;strokeColor=#666666;fontColor=#666666;fontSize=17;verticalAlign=top;whiteSpace=wrap;fillColor=#ffffff;spacingTop=32;container=0;" vertex="1" parent="D3bT0H9rs1EJNgNxw0YY-88">
          <mxGeometry width="250" height="165" as="geometry" />
        </mxCell>
        <mxCell id="D3bT0H9rs1EJNgNxw0YY-18" value="Result message" style="strokeWidth=1;shadow=0;dashed=0;align=center;html=1;shape=mxgraph.mockup.containers.rrect;rSize=0;fontSize=17;fontColor=#666666;strokeColor=#666666;align=left;spacingLeft=8;fillColor=#ffffff;resizeWidth=1;container=0;" vertex="1" parent="D3bT0H9rs1EJNgNxw0YY-88">
          <mxGeometry width="250" height="35" as="geometry" />
        </mxCell>
        <mxCell id="D3bT0H9rs1EJNgNxw0YY-20" value="" style="strokeWidth=1;shadow=0;dashed=0;align=center;html=1;shape=mxgraph.mockup.containers.rrect;rSize=0;fontSize=16;fontColor=#666666;strokeColor=#c4c4c4;resizable=0;whiteSpace=wrap;fillColor=#ffffff;container=0;" vertex="1" parent="D3bT0H9rs1EJNgNxw0YY-88">
          <mxGeometry x="65" y="132" width="120" height="25" as="geometry">
            <mxPoint x="-60" y="-33" as="offset" />
          </mxGeometry>
        </mxCell>
        <mxCell id="D3bT0H9rs1EJNgNxw0YY-31" value="Payment check" style="shape=rectangle;strokeColor=none;fillColor=none;linkText=;fontSize=17;fontColor=#0000ff;fontStyle=4;html=1;align=center;container=0;" vertex="1" parent="D3bT0H9rs1EJNgNxw0YY-88">
          <mxGeometry x="50" y="130" width="150" height="30" as="geometry" />
        </mxCell>
        <mxCell id="D3bT0H9rs1EJNgNxw0YY-19" value="" style="shape=ellipse;strokeColor=#008cff;resizable=0;fillColor=none;html=1;container=0;" vertex="1" parent="D3bT0H9rs1EJNgNxw0YY-88">
          <mxGeometry x="225" y="10" width="20" height="20" as="geometry">
            <mxPoint x="-25" y="-10" as="offset" />
          </mxGeometry>
        </mxCell>
        <mxCell id="D3bT0H9rs1EJNgNxw0YY-89" value="" style="group" vertex="1" connectable="0" parent="1">
          <mxGeometry x="-520" y="1320" width="500" height="320" as="geometry" />
        </mxCell>
        <mxCell id="D3bT0H9rs1EJNgNxw0YY-58" value="" style="strokeWidth=1;shadow=0;dashed=0;align=center;html=1;shape=mxgraph.mockup.containers.browserWindow;rSize=0;strokeColor=#666666;strokeColor2=#008cff;strokeColor3=#c4c4c4;mainText=,;recursiveResize=0;fontSize=17;container=0;" vertex="1" parent="D3bT0H9rs1EJNgNxw0YY-89">
          <mxGeometry width="500" height="320" as="geometry" />
        </mxCell>
        <mxCell id="D3bT0H9rs1EJNgNxw0YY-59" value="Payment" style="strokeWidth=1;shadow=0;dashed=0;align=center;html=1;shape=mxgraph.mockup.containers.anchor;fontSize=17;fontColor=#666666;align=left;container=0;" vertex="1" parent="D3bT0H9rs1EJNgNxw0YY-89">
          <mxGeometry x="60" y="12" width="110" height="26" as="geometry" />
        </mxCell>
        <mxCell id="D3bT0H9rs1EJNgNxw0YY-60" value="payment-file.pdf" style="strokeWidth=1;shadow=0;dashed=0;align=center;html=1;shape=mxgraph.mockup.containers.anchor;rSize=0;fontSize=17;fontColor=#666666;align=left;container=0;" vertex="1" parent="D3bT0H9rs1EJNgNxw0YY-89">
          <mxGeometry x="130" y="60" width="250" height="26" as="geometry" />
        </mxCell>
      </root>
    </mxGraphModel>
  </diagram>
</mxfile>
